<svg width="38" height="38" viewBox="0 0 38 38" fill="none" xmlns="http://www.w3.org/2000/svg">
  <path d="M30.3169 11.6328L25.448 16.2046L30.0779 28.9368L26.6055 32.4093L19.6884 22.2843L16.1881 25.4644V28.9368L12.7157 32.4093L10.6623 26.3536L4.61334 24.3069L8.08578 20.8345H11.5582L15.0307 17.362L4.61334 10.4172L8.08578 6.94472L20.8181 11.5746L25.4061 6.72204L25.3076 6.8043C25.6299 6.48127 26.0127 6.22494 26.4341 6.04997C26.8556 5.87499 27.3074 5.7848 27.7637 5.78455C28.2201 5.7843 28.672 5.87399 29.0936 6.0485C29.5152 6.22302 29.8983 6.47893 30.221 6.8016C30.5437 7.12427 30.7996 7.50738 30.9741 7.92902C31.1486 8.35066 31.2383 8.80257 31.2381 9.25889C31.2378 9.71522 31.1476 10.167 30.9727 10.5885C30.7977 11.0099 30.5413 11.3927 30.2183 11.7151L30.3169 11.6328Z" stroke="#BCA4FF" stroke-width="2.31496" stroke-linecap="round" stroke-linejoin="round" />
</svg>